<svg width="15" height="16" viewBox="0 0 15 16" fill="none" xmlns="http://www.w3.org/2000/svg">
<path fill-rule="evenodd" clip-rule="evenodd" d="M2 0.5C0.895431 0.5 0 1.39543 0 2.5V13.5C0 14.6046 0.89543 15.5 2 15.5H13C14.1046 15.5 15 14.6046 15 13.5V2.5C15 1.39543 14.1046 0.5 13 0.5H2ZM6.20713 10.4479C8.54604 6.38485 11.4777 3.83056 12.8952 3.0099C12.9699 2.96691 13.0392 3.07438 12.9741 3.13253C10.5313 5.30984 7.44859 10.9687 6.49647 12.7801C6.37146 13.0176 6.07979 13.0672 5.89098 12.9069L5.88811 12.9041C5.8842 12.9011 5.8803 12.8978 5.87665 12.8942C5.77717 12.8052 5.15683 12.2356 4.45576 11.233C3.82917 10.3366 3.16612 9.37373 3.02705 9.05709C3.01299 9.03505 3.00518 9.01217 3.00257 8.9893C2.99919 8.9747 2.99919 8.96367 3.00231 8.95678C3.01195 8.85455 3.1195 8.77132 3.22394 8.83333C3.22394 8.83333 4.89067 9.83779 5.6532 10.4088C5.71493 10.4551 5.77795 10.4989 5.84254 10.5411L5.84358 10.5419C5.96832 10.6221 6.13109 10.5799 6.20713 10.4479Z" fill="#149948"/>
</svg>
