<svg width="163" height="56" viewBox="0 0 163 56" fill="none" xmlns="http://www.w3.org/2000/svg">
<path d="M28.2632 56C27.2626 56 26.3274 55.8594 25.4719 55.5547C24.7925 55.3204 24.1672 54.9923 23.61 54.5704C22.655 53.8615 22.2456 53.1525 22.2428 53.1525C22.24 53.135 21.6004 52.2854 20.7306 50.7621C19.9319 49.3794 18.7806 47.1178 17.8256 44.3231C16.7511 41.171 16.14 37.9837 16.0007 34.8433C15.8273 30.9295 16.4043 27.0743 17.7204 23.4007C18.9995 19.8209 20.7107 16.616 22.8084 13.8682C22.2144 13.3174 21.6373 12.7433 21.0944 12.1691C19.2866 10.2532 17.2741 8.77087 15.1224 7.78657C13.2918 6.93702 11.4413 6.49173 9.76996 6.49173C7.76032 6.49173 6.27086 7.14794 5.88712 8.21427C5.55455 9.13413 6.09178 10.2356 7.39933 11.3254C7.40501 11.3664 12.2884 16.991 17.7204 18.3561C17.7318 18.3854 17.7261 18.4206 17.6948 18.4616C17.5356 18.7311 16.7909 19.317 15.6369 19.8385C14.6534 20.2837 13.0701 20.811 11.1201 20.811C9.8666 20.811 8.61307 20.5943 7.39933 20.149C6.08041 19.6685 4.88941 18.9127 3.8519 17.8874C3.0219 17.0613 2.29138 16.077 1.68024 14.9521C0.639893 13.0362 0.301637 11.343 0.301637 11.3254C0.295952 11.3137 0.0259156 10.4231 0.00317574 9.14585C-0.0167217 8.41348 0.057183 7.6811 0.216362 6.99561C0.406809 6.12848 0.733695 5.31994 1.18281 4.59343C2.64669 2.22055 5.39537 0.685499 9.35496 0.0117179C9.59088 0.0117179 9.82397 0 10.0485 0C13.2548 0 16.68 0.949153 20.2332 2.83574C22.8795 4.24189 25.5514 6.12848 28.1893 8.46035C30.324 6.81984 32.2796 5.83553 33.5474 5.30236C34.9288 4.71061 35.7986 4.51726 35.8043 4.51726C35.8157 4.51726 36.7423 4.2126 38.2346 3.91965C39.6132 3.64428 41.7565 3.31617 44.1697 3.31617C47.757 3.31617 50.9349 4.01925 53.6068 5.38439C57.0746 7.16552 59.6698 10.0716 61.3099 14.0322C62.0177 15.7313 62.3702 17.2722 62.3645 18.6081C62.3617 19.8385 62.0518 20.9048 61.4464 21.8129C60.5652 23.1371 59.0274 24.1038 56.8785 24.7073C55.1559 25.1877 53.0326 25.4338 50.5739 25.4338H50.5653C46.2561 25.4338 42.2937 24.6604 42.2511 24.6545C42.2397 24.6428 40.2698 24.1214 37.4046 22.9437C35.7247 22.2406 34.0675 21.4673 32.4871 20.6294C30.5087 19.5807 28.6355 18.4264 26.9215 17.2136C26.4411 18.1687 26.2109 19.2526 26.2365 20.4244C26.2621 21.7075 26.6003 23.1371 27.2399 24.6545C27.2285 24.7248 27.7231 27.5899 29.1728 31.4626C29.9943 33.6656 30.9579 35.7221 32.0266 37.5911C33.3569 39.9054 34.8634 41.9209 36.495 43.5673C36.4893 43.5966 36.5092 43.6376 36.549 43.6903C36.7793 44.0477 37.7088 44.8797 38.6184 44.8797C39.2892 44.8797 39.815 44.452 40.1817 43.5673C40.7758 42.1553 42.6774 38.8039 45.2271 35.8979C46.7024 34.2046 48.1975 32.8747 49.6842 31.9314C51.4664 30.8006 53.2231 30.2205 54.9058 30.2205C55.3777 30.2205 55.8495 30.2674 56.31 30.3553C56.347 30.4959 56.9467 30.8709 57.7852 31.2049C58.3765 31.4451 59.5419 31.8552 60.6874 31.8552C61.2019 31.8552 61.6596 31.7732 62.0376 31.6033C62.2963 31.4978 62.5237 31.4451 62.7198 31.4451C63.0382 31.4451 63.2769 31.5857 63.4219 31.8728C63.7971 32.5876 63.4702 33.982 63.078 34.5386C62.4498 35.4174 57.6659 43.3212 57.6204 43.3974C57.5948 43.497 56.995 45.7468 57.5266 46.4499C57.6318 46.5905 57.7796 46.6608 57.9615 46.6608C58.5072 46.6608 59.3913 46.0163 60.5851 44.7566C61.6596 43.62 63.024 41.6631 64.6442 38.9211C65.9432 36.7299 67.4099 34.0289 68.9875 30.9295C71.6708 25.674 73.8481 20.8638 73.868 20.8228C73.8766 20.8286 74.5417 21.1684 75.619 21.1684C76.648 21.1684 77.7054 20.8872 78.7713 20.2896C79.0158 20.1548 79.2119 20.0845 79.3484 20.0845C79.4564 20.0845 79.536 20.1314 79.5786 20.2076C79.6951 20.4244 79.5928 20.9048 79.2745 21.6547C79.0215 22.2582 78.632 23.0199 78.1147 23.9339C77.3074 25.3635 76.4433 26.711 76.2785 26.9571L76.2728 26.9688L73.868 31.6033C73.8936 31.6033 76.2728 30.9646 77.0403 30.3553C77.333 30.1151 78.2199 29.7811 79.2091 29.7811C79.8969 29.7811 80.889 29.9452 81.6991 30.7654C82.6911 31.7556 83.18 33.4664 83.1544 35.8452C83.0294 37.1576 82.7679 38.3645 82.3841 39.4074C82.0743 40.2511 81.6849 40.9952 81.2244 41.628C80.474 42.6533 79.7918 43.0458 79.715 43.0868C79.7122 43.0868 79.499 43.7548 79.7463 44.1004C79.8486 44.2411 80.0135 44.3055 80.2295 44.3055C80.6928 44.3055 81.4092 44.0008 82.3642 43.3974C83.1601 42.8876 84.0726 42.0439 85.076 40.8839C85.8804 39.9347 86.7417 38.7981 87.637 37.4857C89.172 35.2417 90.2806 33.2555 90.2891 33.2379C90.3175 33.191 90.9883 32.1657 92.1594 31.1638C92.8644 30.5604 93.6063 30.0799 94.3766 29.746C95.3373 29.3065 96.3379 29.0898 97.347 29.0898C98.4612 29.0898 99.6096 29.3593 100.755 29.8866C100.801 29.8866 101.247 30.2147 101.588 30.6834C101.841 31.0408 102.102 31.5798 101.906 32.1657C101.48 33.1676 100.923 33.2379 100.758 33.2379C100.667 33.2555 100.568 33.2731 100.468 33.2731C99.8569 33.2731 99.385 32.8044 99.3623 32.7868C99.3538 32.7751 98.5948 31.8376 97.4266 31.8376C96.8126 31.8376 96.1901 32.0837 95.5761 32.5876C95.0133 33.1383 94.7745 33.7594 94.8172 34.6089C94.8541 35.3999 95.1412 36.3842 95.5761 37.7083C95.8348 38.4875 96.3009 39.2668 96.7444 40.0226C97.2617 40.9014 97.8046 41.8096 98.0377 42.7353C98.2964 43.7723 98.1372 44.6922 97.5431 45.5652C97.2674 45.9812 97.1565 46.2448 97.2105 46.3444C97.2248 46.3796 97.2617 46.3972 97.31 46.3972C98.0576 46.3972 102.176 42.9111 102.876 41.8389C102.887 41.8272 102.918 41.7158 102.978 41.5284C103.205 40.714 103.905 38.2649 105.38 35.8803C106.213 34.5327 107.171 33.3902 108.225 32.5114C109.504 31.4275 110.945 30.701 112.503 30.3553C113.89 30.0448 115.155 29.8866 116.284 29.8866C117.261 29.8866 118.143 29.9979 118.904 30.2381C119.507 30.4373 120.039 30.701 120.476 31.0291C121.224 31.5857 121.443 32.154 121.443 32.1657C121.448 32.1657 121.983 33.1852 121.883 34.6851C121.818 35.5698 121.559 36.4486 121.096 37.2923C120.525 38.3352 119.641 39.3488 118.467 40.2804C116.619 41.751 114.561 42.8115 112.338 43.4149C110.559 43.913 109.152 43.9774 108.47 43.9774C108.219 43.9774 108.086 43.9774 108.086 43.9774C108.086 43.995 108.04 45.6589 109.055 46.696C109.592 47.2467 110.329 47.5338 111.244 47.5338C112.424 47.5338 113.919 47.0592 115.67 46.1335C117.446 45.1843 119.032 44.1239 120.391 42.9638C121.474 42.0322 122.412 41.0421 123.185 40.0109C124.493 38.2649 124.859 37.0052 124.865 36.9994C124.865 36.9818 125.326 36.0737 125.718 34.8081C126.085 33.6363 126.471 31.9138 126.238 30.3553C126.281 30.3377 126.909 30.0917 127.847 29.869C128.694 29.6639 129.973 29.4237 131.278 29.4237C133.339 29.4237 134.851 30.0096 135.769 31.1697C136.374 31.9314 136.693 32.8454 136.718 33.8824C136.738 34.7261 136.573 35.6401 136.221 36.6068C135.624 38.259 134.692 39.5129 134.686 39.5304L132.048 43.9774C132.04 43.995 131.386 45.7234 131.826 46.362C131.932 46.5202 132.096 46.5905 132.315 46.5905C132.622 46.5905 133.04 46.444 133.56 46.1335C134.424 45.6179 135.763 44.6336 137.238 42.8232C138.114 41.7393 138.628 40.8839 138.648 40.8429C138.66 40.8194 139.885 38.1126 142.093 35.4116C143.381 33.8238 144.745 32.57 146.135 31.6677C147.881 30.5428 149.686 29.9628 151.496 29.9628C152.355 29.9628 153.23 30.0917 154.094 30.3553C156.675 31.4978 157.872 31.7322 158.423 31.7322C158.816 31.7322 158.878 31.615 158.881 31.6033C158.887 31.6033 159.62 31.2166 160.166 31.2166C160.393 31.2166 160.558 31.2869 160.649 31.4216C160.803 31.6326 160.774 32.031 160.57 32.5876C159.734 34.8608 154.876 43.0458 154.669 43.3974C154.657 43.4267 153.648 45.6882 154.063 46.3151C154.128 46.4206 154.239 46.485 154.384 46.485C154.598 46.485 154.89 46.362 155.263 46.1335C155.973 45.6882 157.173 44.7566 158.844 42.9111C159.862 41.7861 160.564 40.8546 160.57 40.8429C160.575 40.8429 161.226 40.1984 162.082 40.1984C162.261 40.1984 162.44 40.2277 162.61 40.2804C162.818 40.339 162.94 40.462 162.983 40.6261C163.148 41.2647 162.07 42.4306 162.062 42.4424C162.048 42.4599 160.939 43.8602 159.347 45.4128C158.423 46.3151 157.517 47.0768 156.658 47.6978C155.587 48.4654 154.589 48.9927 153.685 49.2622C153.119 49.4204 152.582 49.52 152.096 49.52C150.772 49.52 149.978 48.8989 149.546 48.3716C148.921 47.6275 148.682 46.6608 148.787 46.1335C148.785 46.1335 148.77 46.1394 148.742 46.1862C148.185 46.8249 147.585 47.4283 146.96 47.9381C146.32 48.4654 145.681 48.8872 145.055 49.1919C144.279 49.5551 143.532 49.7485 142.824 49.7485C141.926 49.7485 141.084 49.438 140.334 48.8169C139.899 48.5181 139.541 48.1021 139.265 47.5865C139.046 47.1881 138.884 46.7253 138.776 46.2038C138.603 45.366 138.643 44.6746 138.648 44.6043C138.648 44.6043 138.645 44.6043 138.643 44.6043C138.495 44.7918 137.693 45.7761 136.38 46.8249C135.539 47.5045 134.649 48.0845 133.748 48.5415C132.614 49.1216 131.448 49.5258 130.286 49.725C129.973 49.7778 129.672 49.8012 129.393 49.8012C128.461 49.8012 127.739 49.5024 127.241 48.8814C126.934 48.5064 126.716 48.0084 126.585 47.4166C126.477 46.9479 126.428 46.403 126.434 45.8113C126.451 44.8035 126.625 43.9774 126.63 43.9774V43.9657C126.69 43.8075 127.261 42.2724 128.103 40.4913C128.918 38.7512 130.166 36.4018 131.465 35.1011C131.465 35.0718 131.48 35.0015 131.508 34.9136V34.896C131.576 34.6382 131.698 34.1578 131.676 33.7008C131.644 33.15 131.406 32.7692 130.968 32.5876C130.854 32.5348 130.732 32.5173 130.61 32.5173C130.283 32.5173 129.729 32.6872 128.975 33.5191C128.521 34.0113 128.208 34.5035 128.208 34.5035C128.199 34.5386 127.247 37.2806 125.442 40.2863C124.382 42.0674 123.231 43.5966 122.02 44.827C120.516 46.3679 118.916 47.4693 117.273 48.0728C114.808 48.9868 112.37 49.4731 110.226 49.4731C108.231 49.4731 106.508 49.0513 105.252 48.2427C104.601 47.8326 104.069 47.3287 103.672 46.7253C103.265 46.1159 102.998 45.3953 102.876 44.5984C102.876 44.5984 102.873 44.6043 102.87 44.6043C102.625 44.8797 101.301 46.3268 99.4447 47.7916C98.2651 48.7232 97.1196 49.4497 96.0309 49.9887C94.6722 50.6449 93.4044 50.9906 92.2703 50.9906C92.2333 50.9906 92.2021 50.9906 92.168 50.9906C89.5586 50.9379 87.8758 50.3637 86.9293 49.8715C85.9202 49.3559 85.4967 48.8462 85.4768 48.8169C85.4739 48.8169 85.0987 47.9849 84.9679 47.0534C84.8884 46.5143 84.9111 46.0339 85.0276 45.6413C85.1698 45.1551 85.4682 44.8094 85.9145 44.5984C86.1362 44.493 86.3522 44.4344 86.5512 44.4344C86.8639 44.4344 87.1481 44.5692 87.3869 44.8387C87.583 45.0555 87.7507 45.3484 87.8929 45.7234C88.1146 46.3151 88.1828 46.9303 88.1942 47.0006C88.1885 47.0065 87.927 47.9381 88.3533 48.5064C88.5665 48.7935 88.9275 48.9399 89.4193 48.9399C89.6751 48.9399 89.9679 48.8989 90.2891 48.8169C91.193 48.606 91.8809 48.0728 92.3271 47.2233C93.0719 45.8288 92.9269 44.0477 92.6881 43.3974C92.583 43.1161 92.3271 42.665 92.0315 42.1553V42.1377C91.1987 40.6964 89.9451 38.4934 90.2891 36.9994L90.2862 37.0052C90.0901 37.3099 89.0441 38.9153 87.5148 40.7901C86.5711 41.9443 85.6359 42.9638 84.7405 43.8075C83.6263 44.8562 82.566 45.6355 81.5882 46.1335C80.3233 46.7721 79.2801 47.1002 78.4956 47.1002C77.7992 47.1002 77.4382 46.8249 77.262 46.6198C77.08 46.3972 77.0431 46.1569 77.0403 46.1335C76.972 46.2214 76.3694 46.9538 75.3319 47.6803C74.6895 48.1373 74.0073 48.4888 73.2995 48.7583C72.4098 49.0688 71.4917 49.2446 70.5594 49.2446C68.7175 49.2446 66.8073 48.606 64.8829 47.3522C64.755 47.1002 64.07 45.8816 63.1718 45.8816C62.7795 45.8816 62.3958 46.1159 62.0376 46.5671C61.4691 47.2819 60.4117 48.1255 59.2832 48.7583C57.9387 49.52 56.5914 49.936 55.4914 49.936C54.4226 49.936 53.5727 49.5551 52.9615 48.8169C52.9161 48.7935 52.8677 48.6236 52.7938 48.3716C52.5977 47.7096 52.2737 46.6022 51.6512 46.6022C51.4408 46.6022 51.202 46.7311 50.9548 47.0006C50.8951 47.0592 50.8354 47.1412 50.7671 47.2057L50.7501 47.2233C49.6415 48.4185 48.118 50.059 45.716 50.059C45.0907 50.059 44.4312 49.9535 43.7519 49.725C42.7286 49.0571 42.379 48.3482 42.2596 47.8795C42.1402 47.3815 42.2454 47.0182 42.2511 47.0006C42.2454 46.9479 42.1345 45.6062 41.4438 45.6062C41.1055 45.6062 40.6792 45.9343 40.1817 46.5671C39.6786 47.194 39.2636 48.0377 38.8173 48.9165C38.1977 50.1293 37.4956 51.512 36.424 52.719C35.1875 54.0958 33.6639 54.9923 31.7566 55.4785C30.5286 55.8242 29.3519 56 28.2632 56ZM150.84 33.068C150.803 33.0973 148.938 34.5562 147.034 36.6771C145.922 37.9192 145.027 39.1262 144.376 40.2804C143.563 41.6983 143.128 43.0341 143.08 44.2235C143.037 45.366 143.202 46.1394 143.569 46.5202C143.748 46.7077 143.981 46.8131 144.262 46.8131C145.419 46.8131 147.045 45.1551 147.116 45.0847C147.298 44.8562 151.59 39.4543 153.219 35.8334C153.785 34.8316 153.966 34.0113 153.765 33.3902C153.597 32.8747 153.219 32.6989 153.219 32.6872C153.213 32.6872 153.014 32.5466 152.571 32.5466C152.079 32.5466 151.496 32.7165 150.84 33.068ZM54.1298 33.068C54.0985 33.0856 52.231 34.5386 50.3209 36.6771C49.2123 37.9192 48.3141 39.1262 47.6632 40.2804C46.8502 41.6983 46.4096 43.0341 46.367 44.2235C46.3243 45.366 46.4892 46.1394 46.8559 46.5202C47.0406 46.7077 47.2737 46.8131 47.5495 46.8131C48.7063 46.8131 50.3379 45.1551 50.4062 45.0847C50.5852 44.8562 54.8802 39.4543 56.5061 35.8334C57.0689 34.8316 57.2565 34.0113 57.0547 33.3902C56.8899 32.8747 56.5118 32.6989 56.5061 32.6872C56.5061 32.6872 56.3043 32.5466 55.8609 32.5466C55.3663 32.5466 54.7836 32.7165 54.1298 33.068ZM76.1335 32.6227C76.0852 32.6227 76.034 32.6227 75.963 32.6227C75.4087 32.652 74.5787 32.8629 73.7629 33.7183C73.274 34.2105 73.021 34.7261 73.0181 34.7261L67.2109 44.5516C67.2052 44.5516 66.6367 45.4363 67.2109 46.3444C67.6345 46.5495 68.1063 46.6725 68.6094 46.6725C69.9909 46.6725 71.2046 45.8288 71.216 45.823C71.2359 45.8113 73.1688 44.6746 74.9994 42.6533C76.071 41.4756 76.901 40.1984 77.4609 38.9035C78.1602 37.2806 78.4388 35.5932 78.2938 33.8824C78.2398 33.6832 78.0749 33.3727 77.7423 33.1032C77.333 32.7926 76.793 32.6227 76.1335 32.6227ZM116.298 32.3532C115.945 32.3532 115.516 32.4645 115.01 32.6872C114.294 33.0094 113.512 33.6363 112.696 34.5327C112.043 35.2475 111.363 36.1557 110.675 37.2103C109.504 39.0266 108.717 40.6671 108.708 40.6847C108.703 40.6964 108.163 41.8037 108.458 42.2842C108.549 42.4306 108.708 42.5068 108.936 42.5068C109.493 42.5068 110.454 42.0498 111.79 41.1827C112.921 40.4386 113.913 39.63 114.746 38.8039C115.414 38.1301 115.982 37.4329 116.437 36.7299C117.213 35.5405 117.378 34.7378 117.378 34.7261C117.384 34.7085 117.676 33.3727 117.145 32.7165C116.954 32.4645 116.667 32.3532 116.298 32.3532ZM42.6177 11.1379C41.0572 11.1379 39.6871 11.2023 38.86 11.3254C36.9555 11.6008 34.7099 11.9992 32.5326 12.8253C32.5468 12.8311 32.5496 12.8311 32.5496 12.8311C32.5667 12.8604 34.2551 14.5537 36.8162 16.2118C38.3341 17.1843 39.8577 17.9694 41.3528 18.5261C43.226 19.2233 45.0509 19.5689 46.782 19.5689C49.1327 19.5689 51.3442 18.9245 53.3567 17.6413C55.3919 16.3348 56.2787 15.1923 55.9973 14.2256C55.8353 13.6748 55.2725 13.171 54.3316 12.7433C53.4931 12.3741 52.3589 12.0519 50.9548 11.7941C48.6495 11.3781 45.608 11.1379 42.6177 11.1379Z" fill="url(#paint0_linear_1102_5547)"/>
<defs>
<linearGradient id="paint0_linear_1102_5547" x1="6.07222e-07" y1="28" x2="163" y2="28" gradientUnits="userSpaceOnUse">
<stop stop-color="#4A7EF7"/>
<stop offset="1" stop-color="#6D51EC"/>
</linearGradient>
</defs>
</svg>
